<?xml version="1.0" encoding="utf-8"?>
<!-- Generator: Adobe Illustrator 16.0.0, SVG Export Plug-In . SVG Version: 6.00 Build 0)  -->
<!DOCTYPE svg PUBLIC "-//W3C//DTD SVG 1.1//EN" "http://www.w3.org/Graphics/SVG/1.1/DTD/svg11.dtd">
<svg version="1.1" id="Layer_1" xmlns="http://www.w3.org/2000/svg" xmlns:xlink="http://www.w3.org/1999/xlink" x="0px" y="0px"
	 width="230px" height="230px" viewBox="182.64 305.954 230 230" enable-background="new 182.64 305.954 230 230"
	 xml:space="preserve">
<g>
	<path fill="#1C478A" d="M206.748,447.803v4.435h25.133h3.346c0.467-0.777,1.712-3.345,1.712-9.57c0-4.513-0.934-9.493-0.934-9.493
		s-10.349-16.34,1.789-30.5c10.349-12.061,26.145-4.825,26.145-4.825l17.741-2.179c0,0,12.605,4.747,20.231,19.218
		c1.089,3.034,1.167,4.669,3.812,1.712l4.436-4.902c1.79,12.604-6.147,11.049-6.147,11.049l0,0c0,0,0.934,3.424,0.155,10.427
		l1.868-2.022c0,0,2.956,2.801,0.233,7.936c-0.545,1.323,1.089,3.191,3.112,1.323l5.991-6.691c0.701,1.867,2.023,14.084-8.87,18.519
		h21.787c-1.556-5.446-2.489-12.294-2.489-19.842c0-5.135,0.467-9.96,1.167-14.239c-0.312-5.757-1.167-5.991-2.489-8.169
		c-1.557-2.567-3.425-6.225-3.813-8.248c-0.312-2.101-2.257-3.812-2.257-3.812s0.545-3.035,2.257-7.237
		c2.489-6.069,7.469-7.937,9.648-8.871c1.012-0.389,1.012-1.167,0.467-3.268c-0.389-1.245-0.7-1.478-1.089-1.478h-0.078
		c-0.156,0-0.312,0-0.467-0.156c0,0-0.078,0-0.078-0.078l0,0l0,0l0,0c-0.155-0.156-0.233-0.312-0.311-0.467
		c-0.156-0.312-0.233-0.623-0.233-0.934c0-0.545,0.077-1.011,0.389-1.245c0.078-0.389,0.078-0.934,0.078-0.934l0,0
		c0-0.078,0-0.156,0-0.156c0-3.501,2.645-6.303,5.836-6.303c3.267,0,5.835,2.801,5.835,6.303c0,0,0,0.078,0,0.312
		c0,0.156,0,0.544,0.078,0.778c0.233,0.234,0.389,0.7,0.389,1.245c0,0.389-0.078,0.623-0.233,0.934
		c-0.078,0.155-0.233,0.311-0.311,0.467l0,0l0,0l0,0l-0.078,0.078c-0.155,0.078-0.312,0.156-0.467,0.156c-0.078,0-0.078,0-0.078,0
		c-0.312,0.078-0.7,0.311-1.089,1.478c-0.623,2.101-0.545,2.879,0.467,3.268c0.544,0.312,1.089,0.545,1.556,0.856
		c0.078,0,0.078,0.078,0.155,0.078c0.156,0.079,0.312,0.234,0.468,0.312c0.078,0.078,0.155,0.078,0.233,0.156
		c3.891,2.723,5.368,6.536,6.069,11.283c0.078,0.233,0.078,0.466,0.078,0.623l0,0l0,0c0,0,0,0-0.078,0
		c-1.634,0.078-1.323,2.489-0.934,4.201c0.621,1.712,8.014,22.642,8.948,30.89c1.168,11.205-5.524,9.96-5.524,9.96v5.136
		c11.36,1.09,12.761-8.325,13.072-13.461c0.233-3.269,1.4-21.865,2.412-35.014c4.28,1.322,9.104,2.1,14.161,2.179
		c4.28,0,8.404-0.467,12.139-1.323c-11.595-1.012-21.164-5.758-25.289-12.061h-0.077c0.155-1.245,0.233-1.945,0.39-1.945
		c9.492-56.18-23.811-59.448-23.811-59.448l-26.923-18.286c0,0-8.404,0.856-13.072,11.594c0,0-11.439,7.393-28.091,1.868
		c-0.622-0.233-1.4-0.389-2.101-0.623c-5.758-2.49-12.139-3.891-18.908-3.891c-26.223,0-47.466,21.165-47.466,47.387l0,0v48.787
		c0,0,5.524-7.081,5.524-20.853c5.603,26.688,0.311,42.095-3.112,48.709C209.16,438.933,206.748,443.757,206.748,447.803
		 M245.654,430.762c-0.623,1.791-4.124,9.649-1.323,18.208v3.189h6.77v-17.507C249.155,433.563,247.287,432.24,245.654,430.762
		 M276.855,439.788c-0.233,0.778-2.178,8.015,2.179,12.449h12.294l-7.314-14.083l-1.401,0.312
		C280.824,439.01,278.879,439.478,276.855,439.788"/>
	<polygon fill="#1C478A" points="254.446,518.61 218.653,518.61 218.653,504.215 253.201,504.215 253.201,493.011 218.653,493.011 
		218.653,478.383 254.446,478.383 254.446,466.711 206.748,466.711 206.748,530.515 254.446,530.515 	"/>
	<path fill="#1C478A" d="M349.61,466.633c-10.038,0-20.076,0.078-30.035,0.078v63.727h11.983V478.07l0,0l0,0h18.052
		c15.328,0,15.406,22.566,0,22.566h-9.182v11.05h9.182C380.889,511.687,380.734,466.633,349.61,466.633"/>
	<path fill="#1C478A" d="M313.817,488.498c0-11.05-7.938-21.709-22.955-21.787c-10.116,0-20.231-0.078-30.346-0.078v63.884h12.061
		v-19.375l34.548,23.965l6.926-10.037l-20.31-13.928C310.548,510.752,313.817,497.135,313.817,488.498 M301.832,489.432
		c0,5.136-3.268,11.517-10.893,11.517h-18.363v-23.032h18.286C298.409,477.915,301.832,484.296,301.832,489.432"/>
	<path fill="#1C478A" d="M384.546,466.944h1.556v-8.326h-1.789l-2.567,3.579l-2.568-3.579h-1.79v8.326h1.558v-6.069l2.646,3.657
		h0.312l2.722-3.58v5.992H384.546z M372.097,466.944h1.557v-6.925h2.646v-1.401h-6.849v1.401h2.646V466.944L372.097,466.944z"/>
</g>
</svg>
